PathFileType	4	(X/Y/Z)	C:\Users\willi\Documents\UniDataLokal\DATA_Hans_PhD\TD01\3DGAIT_A_W12\marker_experimental.trc
DataRate	CameraRate	NumFrames	NumMarkers	Units	OrigDataRate	OrigDataStartFrame	OrigNumFrames
100.000000	100.000000	4	76	mm	100.000000	108	174
Frame#	Time	RBAK			C7			CLAV			T10			STRN			RASI			RPSI			LPSI			LASI			RTHI1			RTHI2			RTHI3			RTHI			RKNE			RKNEM			RPAT			RTIB1			RTIB2			RTIB3			RTIB			RANK			RANKM			RHEEL			RTOE			RM5			LTHI1			LTHI2			LTHI3			LTHI			LKNE			LKNEM			LPAT			LTIB1			LTIB2			LTIB3			LTIB			LANK			LANKM			LHEEL			LTOE			LM5			*41			*42			*43			*44			*45			*46			*47			*48			*49			*50			*51			*52			*53			*54			*55			*56			*57			*58			*59			*60			*61			*62			*63			*64			*65			*66			*67			*68			*69			*70			*71			*72			*73			*74			*75			
		X1	Y1	Z1	X2	Y2	Z2	X3	Y3	Z3	X4	Y4	Z4	X5	Y5	Z5	X6	Y6	Z6	X7	Y7	Z7	X8	Y8	Z8	X9	Y9	Z9	X10	Y10	Z10	X11	Y11	Z11	X12	Y12	Z12	X13	Y13	Z13	X14	Y14	Z14	X15	Y15	Z15	X16	Y16	Z16	X17	Y17	Z17	X18	Y18	Z18	X19	Y19	Z19	X20	Y20	Z20	X21	Y21	Z21	X22	Y22	Z22	X23	Y23	Z23	X24	Y24	Z24	X25	Y25	Z25	X26	Y26	Z26	X27	Y27	Z27	X28	Y28	Z28	X29	Y29	Z29	X30	Y30	Z30	X31	Y31	Z31	X32	Y32	Z32	X33	Y33	Z33	X34	Y34	Z34	X35	Y35	Z35	X36	Y36	Z36	X37	Y37	Z37	X38	Y38	Z38	X39	Y39	Z39	X40	Y40	Z40	X41	Y41	Z41	X42	Y42	Z42	X43	Y43	Z43	X44	Y44	Z44	X45	Y45	Z45	X46	Y46	Z46	X47	Y47	Z47	X48	Y48	Z48	X49	Y49	Z49	X50	Y50	Z50	X51	Y51	Z51	X52	Y52	Z52	X53	Y53	Z53	X54	Y54	Z54	X55	Y55	Z55	X56	Y56	Z56	X57	Y57	Z57	X58	Y58	Z58	X59	Y59	Z59	X60	Y60	Z60	X61	Y61	Z61	X62	Y62	Z62	X63	Y63	Z63	X64	Y64	Z64	X65	Y65	Z65	X66	Y66	Z66	X67	Y67	Z67	X68	Y68	Z68	X69	Y69	Z69	X70	Y70	Z70	X71	Y71	Z71	X72	Y72	Z72	X73	Y73	Z73	X74	Y74	Z74	X75	Y75	Z75	X76	Y76	Z76	

109	1.08	141.8331756591797	1166.17138671875	301.6607360839844	149.797103881836	1186.631958007812	185.2040405273438	265.4698791503907	1118.3837890625	199.03125	107.7922821044922	923.9019775390625	193.3463745117188	311.7809753417969	913.7633666992188	193.5474548339844	258.4418640136719	823.3385009765625	291.6679077148438	98.13511657714848	820.2443237304688	248.0165863037109	84.17275238037114	826.6431274414062	168.8211975097656	208.7071533203126	816.7922973632812	65.17425537109376	228.2931823730469	566.49169921875	296.6880493164062	295.2046508789063	546.1494140625	306.4561767578125	289.0562438964844	486.2036437988281	282.7542114257812	299.8038635253907	508.2180786132812	331.0865173339844	352.5707702636719	414.3125	272.4257202148438	374.8733825683594	428.939697265625	165.1253967285157	423.7469787597656	451.5287170410156	228.1365966796875	411.4014892578125	232.3858184814453	189.1546783447266	402.75732421875	180.7890625	230.464584350586	412.6099548339844	141.0905151367187	177.1580047607422	356.6043090820312	138.8386688232422	271.6827087402344	372.4956970214844	56.72413253784178	214.8848419189453	395.1366271972656	71.72645568847653	142.547836303711	329.3426818847656	32.56052398681638	166.8980255126953	503.4456787109375	31.01764869689938	209.294418334961	467.9656066894531	17.46899032592771	244.8377075195313	21.30326843261722	583.5808715820312	97.75527954101562	33.03516387939456	525.679443359375	66.35394287109375	-6.074945926666236	489.0194091796875	106.1994476318359	29.40893745422366	505.7170104980469	30.75632476806641	0.3632639348507138	418.6729736328125	74.43223571777344	29.65344810485841	397.9513549804688	178.2124786376953	74.13906097412112	386.6577453613281	112.7785415649414	-94.27357482910156	245.3269653320312	137.6925048828125	-148.027099609375	227.0400695800781	93.91232299804686	-162.9078521728516	174.9247131347656	148.5483856201172	-205.8359832763672	233.1612243652344	67.14258575439452	-259.7404174804688	155.3764343261719	121.2414321899414	-220.9646301269531	146.5987091064453	187.2064208984375	-290.4325866699219	171.0068511962891	180.0742034912109	-204.4642944335938	28.80529975891115	140.5814666748047	-239.6950225830078	35.29131317138673	107.174186706543	nan	nan	nan	nan	nan	nan	nan	nan	nan	nan	nan	nan	nan	nan	nan	nan	nan	nan	nan	nan	nan	nan	nan	nan	nan	nan	nan	nan	nan	nan	nan	nan	nan	nan	nan	nan	nan	nan	nan	nan	nan	nan	nan	nan	nan	nan	nan	nan	nan	nan	nan	nan	nan	nan	nan	nan	nan	nan	nan	nan	nan	nan	nan	nan	nan	nan	nan	nan	nan	nan	nan	nan	nan	nan	nan	nan	nan	nan	nan	nan	nan	nan	nan	nan	nan	nan	nan	nan	nan	nan	nan	nan	nan	nan	nan	nan	nan	nan	nan	nan	nan	nan	nan	nan	nan	
110	1.09	156.7419128417969	1165.155029296875	301.6179809570312	166.2512664794923	1185.82568359375	185.1435546875	281.9935302734376	1117.730834960938	200.33837890625	124.4963302612305	923.0537109375	192.5509948730469	328.8399658203126	912.85400390625	195.8441467285157	273.5929870605469	823.4278564453125	293.8971557617188	113.9584732055664	819.8320922851562	246.8475036621094	101.4181137084961	825.0474853515625	167.0983734130859	228.7929687500001	814.0942993164062	67.3133010864258	243.409912109375	566.421875	297.8433837890625	310.3058166503907	545.5682983398438	307.3833923339844	303.5222473144532	485.7236328125	283.6004638671875	314.8258972167969	507.6859436035156	331.7983093261719	366.4979858398438	413.1948547363281	272.8236083984375	387.2801818847656	428.2059326171875	164.703598022461	437.7802429199219	449.7686157226562	226.5893249511719	418.2006530761719	229.8209533691406	187.2041473388672	408.9423522949219	178.5311279296875	228.4512786865235	415.92578125	138.5955505371093	174.7739410400391	362.7611999511719	138.1158447265625	270.8714599609375	373.4751281738281	56.03514099121092	213.2750854492188	395.7294311523438	69.6791076660156	140.3669891357422	329.3447875976562	31.52614593505857	165.4692840576172	504.0062255859375	31.08811950683591	208.9917907714844	467.8922119140625	18.1334419250488	245.0301513671875	44.31279754638675	578.0740356445312	96.12551116943359	57.2055358886719	520.6502075195312	64.41398620605469	18.38632965087893	483.0386657714844	103.7178573608398	54.62158966064456	500.8197326660156	28.47850036621094	25.76530265808108	413.4729919433594	71.20658874511719	55.19403839111329	391.9013977050781	174.6694641113281	99.94749450683597	380.5995178222656	109.0846939086914	-74.90549468994141	243.9170837402344	135.1717681884766	-129.4504089355469	227.8153228759766	91.5966110229492	-146.5132141113281	176.3964385986328	146.4645690917969	-187.058364868164	235.9654083251953	64.88229370117186	-243.8742065429688	161.692855834961	119.6887588500976	-205.4284362792969	150.6286163330078	185.4354858398438	-272.2926025390625	180.8278961181641	178.4723205566406	-201.3859558105469	30.49955940246583	140.8067169189453	-234.3845520019531	40.64364624023439	107.0701751708984	nan	nan	nan	nan	nan	nan	nan	nan	nan	nan	nan	nan	nan	nan	nan	nan	nan	nan	nan	nan	nan	nan	nan	nan	nan	nan	nan	nan	nan	nan	nan	nan	nan	nan	nan	nan	nan	nan	nan	nan	nan	nan	nan	nan	nan	nan	nan	nan	nan	nan	nan	nan	nan	nan	nan	nan	nan	nan	nan	nan	nan	nan	nan	nan	nan	nan	nan	nan	nan	nan	nan	nan	nan	nan	nan	nan	nan	nan	nan	nan	nan	nan	nan	nan	nan	nan	nan	nan	nan	nan	nan	nan	nan	nan	nan	nan	nan	nan	nan	nan	nan	nan	nan	nan	nan	
111	1.1	171.8139038085938	1164.422485351562	301.6083374023438	182.6466064453126	1185.3388671875	185.0567169189453	298.4126586914063	1117.274169921875	201.4429168701172	140.837142944336	922.593994140625	191.8172149658203	345.4074707031251	911.971923828125	197.8229217529297	288.1709289550782	823.8310546875	296.0547790527344	129.2913970947266	819.6785278320312	245.7384796142578	118.1429290771485	823.6397094726562	165.5399475097656	247.8721771240235	811.7908935546875	69.2295379638672	258.0475158691407	566.7176513671875	299.4633178710938	325.0083007812501	545.4305419921875	308.6827087402344	317.5078430175782	485.6003723144531	285.0390014648438	329.6307678222657	507.9135437011719	333.1145324707031	379.6913757324219	412.3016357421875	273.6799926757812	399.4697265625	427.6859436035156	165.0696411132813	451.1731567382812	448.2565612792969	225.9344482421875	424.538818359375	227.7109985351562	186.0777740478516	414.6581115722656	176.7908325195312	227.3326416015625	418.9912109375	136.7105255126953	173.3110809326172	368.4712524414062	137.8762969970703	270.9101867675781	374.3580932617188	55.84596252441404	212.5289459228516	396.2783508300781	68.40185546874997	139.1312408447266	329.3493347167969	31.17726325988767	164.7922058105469	504.4314880371094	31.3785419464111	209.0303955078125	467.918701171875	18.69314765930173	245.2743530273438	67.73618316650393	572.269775390625	94.39691925048828	82.02412414550784	515.4339599609375	62.36143493652344	43.66534423828127	476.722412109375	101.0702590942383	80.64167022705081	495.6806640625	26.08909988403321	52.33773040771487	408.0561218261719	67.83835601806641	81.99890136718751	385.6999816894531	170.9827728271484	126.9148559570313	374.4726867675781	105.2413101196289	-54.11977767944335	242.5901336669922	132.4673309326172	-109.3248519897461	228.7553405761719	89.153076171875	-128.5698089599609	178.0943756103516	144.2477416992188	-166.606460571289	238.8740539550781	62.42771530151366	-226.2193603515625	168.4524078369141	117.991340637207	-188.2559204101562	154.9620056152344	183.5490112304688	-252.1026763916016	190.8422088623047	176.764404296875	-196.9514465332031	33.53312301635744	140.4672698974609	-227.4140014648438	47.46929168701173	106.5482330322265	nan	nan	nan	nan	nan	nan	nan	nan	nan	nan	nan	nan	nan	nan	nan	nan	nan	nan	nan	nan	nan	nan	nan	nan	nan	nan	nan	nan	nan	nan	nan	nan	nan	nan	nan	nan	nan	nan	nan	nan	nan	nan	nan	nan	nan	nan	nan	nan	nan	nan	nan	nan	nan	nan	nan	nan	nan	nan	nan	nan	nan	nan	nan	nan	nan	nan	nan	nan	nan	nan	nan	nan	nan	nan	nan	nan	nan	nan	nan	nan	nan	nan	nan	nan	nan	nan	nan	nan	nan	nan	nan	nan	nan	nan	nan	nan	nan	nan	nan	nan	nan	nan	nan	nan	nan	
112	1.11	187.0591125488282	1164.010131835938	301.6436157226562	198.9571685791016	1185.188720703125	184.9395446777344	314.6973266601563	1117.017822265625	202.3173065185547	156.7828369140626	922.5372924804688	191.1579132080078	361.4243469238282	911.1713256835938	199.4596252441407	302.1947631835938	824.5488891601562	298.1043090820312	144.1359405517578	819.8110961914062	244.7394256591797	134.321029663086	822.486328125	164.2091522216797	265.8658752441407	809.9842529296875	70.8261184692383	272.0196533203126	567.319091796875	301.4530639648438	339.0632324218751	545.6047973632812	310.3571472167969	330.7715148925782	485.7273254394531	286.9983520507812	343.7899169921876	508.6240234375	335.0093078613281	391.9137573242188	411.53173828125	274.9757995605469	411.4767150878906	427.189453125	166.3188171386719	463.7355346679688	446.7478332519531	226.5505828857422	430.4030151367188	225.9672546386718	185.7708587646485	419.790771484375	175.3965148925781	227.0466613769532	421.8276672363281	135.3126068115234	172.6899108886719	373.4642944335938	137.8604431152343	271.5604858398438	375.14111328125	55.97365570068357	212.4265594482422	396.8324279785156	67.75485992431638	138.6652374267578	329.3960571289062	31.34212303161619	164.6348724365235	504.7301635742188	31.69403457641598	209.2694549560547	468.0121154785156	19.06040000915525	245.5259857177735	91.4412536621094	566.36962890625	92.67960357666016	107.3184432983399	510.2486267089844	60.28902435302735	69.64781188964847	470.302001953125	98.38793182373047	107.1902923583985	490.5635375976562	23.6943531036377	79.91905212402347	402.6602478027344	64.42849731445312	109.9037628173828	379.6282043457031	167.2886047363281	154.8975067138672	368.5884399414062	101.383918762207	-31.95011711120605	241.4774169921875	129.6103820800781	-87.68814849853514	229.9902038574219	86.61283111572266	-109.0687942504883	180.1149749755859	141.8969421386719	-144.5292358398437	242.0476684570312	59.8229751586914	-206.8031005859375	175.688720703125	116.1465606689453	-169.4391784667969	159.6509704589844	181.5205993652344	-230.0008697509766	200.8686218261719	175.004150390625	-190.5475921630859	38.04347229003908	139.2587738037109	-218.3450927734375	55.74902725219728	105.3960723876953	nan	nan	nan	nan	nan	nan	nan	nan	nan	nan	nan	nan	nan	nan	nan	nan	nan	nan	nan	nan	nan	nan	nan	nan	nan	nan	nan	nan	nan	nan	nan	nan	nan	nan	nan	nan	nan	nan	nan	nan	nan	nan	nan	nan	nan	nan	nan	nan	nan	nan	nan	nan	nan	nan	nan	nan	nan	nan	nan	nan	nan	nan	nan	nan	nan	nan	nan	nan	nan	nan	nan	nan	nan	nan	nan	nan	nan	nan	nan	nan	nan	nan	nan	nan	nan	nan	nan	nan	nan	nan	nan	nan	nan	nan	nan	nan	nan	nan	nan	nan	nan	nan	nan	nan	nan	
